# xmcd CD database file
#
# Track frame offsets:
#	150
#	7626
#	28793
#	44059
#	64426
#	80175
#	112210
#	137426
#	157390
#	176129
#	204488
#	212553
#	224596
#	238618
#	249387
#	260945
#	278209
#
# Disc length: 4328 seconds
#
# Revision: 0
# Processed by: cddbd v1.5.2PL0 Copyright (c) Steve Scherf et al.
# Submitted via: CDex 1.51
#
DISCID=1110e611
DTITLE=Sampler - American Folk Blues Festival 1962 Paris  CD 2
DYEAR=1962
DGENRE=Blues
TTITLE0=Memphis Slim - Hugues Panassle
TTITLE1=Sonny Terry and Brownie McGhee - I`m A Stranger Here
TTITLE2=Sonny Terry and Brownie McGhee - Talkin' Harmonica Blues
TTITLE3=Sonny Terry and Brownie McGhee - Born And Livin' With The Blues
TTITLE4=Sonny Terry and Brownie McGhee - Baby, I Got My Eye On You
TTITLE5=Sonny Terry and Brownie McGhee - John Henry
TTITLE6=T-Bone Walker - Woman You Must Be Crazy
TTITLE7=T-Bone Walker - My Old Time Used To Be
TTITLE8=T-Bone Walker - Call It Stormy Monday
TTITLE9=T-Bone Walker - You Don`t Love Me
TTITLE10=T-Bone Walker - T-Bone Talks To The Booers
TTITLE11=Helen Humes - Money Honey
TTITLE12=Helen Humes - Baby Won`t You Please Come Home
TTITLE13=Helen Humes - Kansas City
TTITLE14=Helen Humes - Saint Louis Blues
TTITLE15=Helen Humes - Million Dollar Secret
TTITLE16=Memphis Slim - Bye Bye Baby (Finale)
EXTD=YEAR: 1962
EXTT0=
EXTT1=
EXTT2=
EXTT3=
EXTT4=
EXTT5=
EXTT6=
EXTT7=
EXTT8=
EXTT9=
EXTT10=
EXTT11=
EXTT12=
EXTT13=
EXTT14=
EXTT15=
EXTT16=
PLAYORDER=
